<svg xmlns="http://www.w3.org/2000/svg" viewBox="0 0 996.27 118.9"><defs><style>.cls-1{fill:#fff;}</style></defs><g id="Layer_2" data-name="Layer 2"><g id="Layer_1-2" data-name="Layer 1"><path class="cls-1" d="M82.7,36.34a18.17,18.17,0,1,1,18.17-18.17A18.19,18.19,0,0,1,82.7,36.34Zm0-30.07a11.9,11.9,0,1,0,11.9,11.9A11.92,11.92,0,0,0,82.7,6.27Z"/><polygon class="cls-1" points="83.59 110.05 0.1 47.86 0 47.96 0 56.62 83.59 118.9 165.4 58.39 165.4 49.53 83.59 110.05"/><polygon class="cls-1" points="83.59 93.76 0.1 31.57 0 31.67 0 40.33 83.59 102.61 165.4 42.1 165.4 33.24 83.59 93.76"/><polygon class="cls-1" points="83.59 77.47 0.1 15.28 0 15.38 0 24.04 83.59 86.33 165.4 25.82 165.4 16.96 83.59 77.47"/><path class="cls-1" d="M205.12,16.61h20.16l28,68.64L280.6,16.61H300l-37.68,85.68H243.28Z"/><path class="cls-1" d="M308.32,15.17h16.56V28.61H308.32Zm0,23.52h16.56v63.6H308.32Z"/><path class="cls-1" d="M435.16,102.29H424.6l-2.52-11.16c-7,8.4-19.2,13.56-32.64,13.56-36.24,0-50.4-21.12-50.4-45.24S354,14.21,389,14.21c26,0,42.72,13.2,44.64,30H414.16c-3.24-11.64-14-16.56-25.68-16.56-22.2,0-30.72,13.56-30.72,32.4,0,22.8,14.64,31.2,29.76,31.2,18.36,0,26.76-8.4,29.64-22.56H392.92V55.25h42.24Z"/><path class="cls-1" d="M484,16.61h21.36l38.16,85.68h-20l-9-21.24H474.16l-8.88,21.24H445.84Zm25.08,51L494.44,31.49,479.56,67.61Z"/><path class="cls-1" d="M554.2,16.61h18V88.13h52.08v14.16H554.2Z"/><path class="cls-1" d="M637.24,16.61h18V88.13h52.08v14.16H637.24Z"/><path class="cls-1" d="M720.28,16.61h74.39V30.05H738.28v21.6H792.4V65.09H738.28V88.85h57.35v13.44H720.28Z"/><path class="cls-1" d="M812.2,16.61h54.24c21.84,0,28.91,10,28.91,23.28,0,11.16-6.11,18.12-14.15,20.64v.24c10.19,2.16,12.47,11,12.47,23.16,0,4.08.12,13.68,3.6,18.36H877.84c-1.32-2.4-2.16-6.72-2.16-13,0-12.24-1.68-20.88-14.88-20.88H830.2v33.84h-18ZM861.28,55c10,0,15.36-3,15.36-12.6,0-8.88-5.88-12.36-15.36-12.36H830.2V55Z"/><path class="cls-1" d="M940.84,69.65l-37.44-53h22l24.48,38.16,24.47-38.16h22l-37.44,53v32.64h-18Z"/></g></g></svg>