<svg xmlns="http://www.w3.org/2000/svg" viewBox="0 0 996.27 223.49"><defs><style>.cls-1{fill:#fff;}</style></defs><g id="Layer_2" data-name="Layer 2"><g id="Layer_1-2" data-name="Layer 1"><path class="cls-1" d="M370.57,192a9.21,9.21,0,0,1-.41,2.58,7.53,7.53,0,0,1-3.8,4.53,7.93,7.93,0,0,1-3.69.79H337.92a3.55,3.55,0,0,1-1.31-.25,3.15,3.15,0,0,1-1.73-1.73,3.55,3.55,0,0,1-.25-1.31V167.18a3.32,3.32,0,0,1,.94-2.33,3.26,3.26,0,0,1,1-.71,3.55,3.55,0,0,1,1.31-.25h21.82a8.92,8.92,0,0,1,2.58.43,7.71,7.71,0,0,1,2.57,1.37,7.28,7.28,0,0,1,2,2.44,7.81,7.81,0,0,1,.79,3.69v1.23a13.59,13.59,0,0,1-.57,3.72,12.55,12.55,0,0,1-1.86,3.78,11,11,0,0,1,2.07,1.63,10.36,10.36,0,0,1,1.69,2.2,11.73,11.73,0,0,1,1.16,2.84,13.49,13.49,0,0,1,.42,3.48Zm-6.52-1.26a6.15,6.15,0,0,0-.4-2.29,4.94,4.94,0,0,0-1.13-1.74,4.83,4.83,0,0,0-1.75-1.12,6.51,6.51,0,0,0-2.31-.39h-14.7v-6.57h11.76a6.43,6.43,0,0,0,2.31-.39,4.73,4.73,0,0,0,2.87-2.86,6.36,6.36,0,0,0,.39-2.29v-1.23q0-1.41-1.35-1.41H341.15v22.93h21.52l.43,0a1.09,1.09,0,0,0,.45-.15,1,1,0,0,0,.35-.43,1.85,1.85,0,0,0,.15-.82Z"/><path class="cls-1" d="M410,175.93a12.91,12.91,0,0,1-.56,4A11.88,11.88,0,0,1,408,183a10.3,10.3,0,0,1-2.17,2.29,13.63,13.63,0,0,1-2.57,1.57,12,12,0,0,1-2.7.89A13.3,13.3,0,0,1,398,188h-2.63v11.82h-6.57V188h-2.61a13.22,13.22,0,0,1-2.57-.27,12.11,12.11,0,0,1-2.71-.89,12.75,12.75,0,0,1-2.57-1.57,10.3,10.3,0,0,1-2.17-2.29,11.53,11.53,0,0,1-1.51-3.11,13.29,13.29,0,0,1-.56-4v-12h6.52v12a6.2,6.2,0,0,0,.4,2.3,5.13,5.13,0,0,0,1.13,1.74,4.87,4.87,0,0,0,1.77,1.12,6.76,6.76,0,0,0,2.32.38H398c.62-.1,1.25-.23,1.91-.38a5.25,5.25,0,0,0,1.78-.82,4.53,4.53,0,0,0,1.33-1.6,6.08,6.08,0,0,0,.52-2.74v-12H410Z"/><path class="cls-1" d="M621.38,162.44a17.1,17.1,0,0,0-.2,3.28c0,3.91-.24,3.68,4,3.68,2.34,0,3.46-.08,3.62-.24.34-.34.34-6.66,0-7-.16-.16-1.3-.24-3.74-.24h-3.51Z"/><path class="cls-1" d="M552,164.69c-.14,0-.26.32-.26.61,0,.56,17.83,33,19,34.62a5.26,5.26,0,0,0,1.92,1.56c1.2.61,1.26.61,4.56.61s3.33,0,4.41-.59a6.53,6.53,0,0,0,1.76-1.54c.67-.91,18.39-33.21,18.8-34.24a.79.79,0,0,0-.06-.85c-.23-.28-.87-.32-4.25-.32-3,0-4.09.06-4.37.28s-3.89,6.82-8.2,14.81c-6.92,12.9-7.87,14.56-8.32,14.62s-1-.83-8.54-14.72c-4.43-8.11-8.17-14.81-8.36-14.87A73.11,73.11,0,0,0,552,164.69Z"/><path class="cls-1" d="M651.23,165.05l-.5.49v17.93c0,17.65,0,17.91.4,18.31s.67.41,3.81.41c2.61,0,3.5-.06,3.8-.28s.38-.63.45-5.87l.06-5.59,8.54,0,8.52.06,4.29,5.65c2.36,3.1,4.41,5.71,4.55,5.81.45.28,8.36.22,8.64-.06.59-.59.16-1.24-4.29-6.76L685,189.56l1.6-.55a8,8,0,0,0,5.52-5.54c.41-1.3.45-1.82.45-6.27s0-5-.47-6.28c-1.19-3.64-3.78-5.6-8.13-6.17-.87-.1-8.14-.2-16.86-.2H651.72Zm30.88,7.51c1.79.83,2.29,2.21,2.19,5.89-.08,2.17-.14,2.47-.63,3.32-1,1.76-.5,1.7-13.25,1.76l-11.19,0v-5.65c0-4.33.06-5.68.26-5.76s5.08-.08,11-.06C680.92,172.14,681.2,172.16,682.11,172.56Z"/><path class="cls-1" d="M719.8,164.77a7.43,7.43,0,0,0-4.64,2.29c-2,2-2.18,2.73-2.26,7.81a29.15,29.15,0,0,0,.16,5.26c.77,3.52,3.11,5.65,6.92,6.27.75.13,5.73.21,12.16.21,11.94,0,11.74,0,12.39,1.21a12.57,12.57,0,0,1,0,5.46c-.65,1.26-.06,1.22-16.25,1.22-14,0-14.78,0-15.08.36s-.35.87-.35,3.52c0,2.82,0,3.18.39,3.49s1.58.34,16.84.28c14.83-.06,16.57-.1,17.48-.41a7.92,7.92,0,0,0,5.18-4.91c.35-1,.45-1.85.53-4.66.18-5.64-.37-7.85-2.45-9.93a7.72,7.72,0,0,0-5.06-2.31c-.79-.1-6.25-.2-12.12-.2-11.86,0-11.64,0-12.2-1.32a9.46,9.46,0,0,1,.06-4.9c.6-1.31.16-1.27,15.7-1.27,13.36,0,14.07,0,14.37-.37s.34-.87.34-3.44c0-2.81,0-3.11-.4-3.48s-.67-.4-15.52-.38C727.65,164.59,720.38,164.67,719.8,164.77Z"/><path class="cls-1" d="M785,164.77c-4.53.49-7.77,2.17-9.43,4.94-1.54,2.55-2,5.87-2,13.66a53.52,53.52,0,0,0,.68,10.42c1.3,5.06,4.56,7.51,10.87,8.18,2.65.3,27.36.3,27.91,0,.36-.21.38-.47.38-3.65,0-2.51-.06-3.46-.24-3.58s-6.35-.2-13.82-.26l-13.56-.1-1.21-.61c-1.91-.95-2.45-2-2.68-5.32l-.12-1.86h15.3c15.06,0,15.32,0,15.73-.41s.4-.67.4-3,0-2.68-.4-3-.67-.4-15.71-.4H781.8l.14-1.68c.23-3.08.79-4.15,2.66-5.1l1.19-.61,13.56-.1c7.47-.06,13.7-.18,13.84-.27s.24-1.07.24-3.58c0-3.17,0-3.44-.38-3.64S787.45,164.51,785,164.77Z"/><path class="cls-1" d="M621.75,172.87c-.35.18-.37,1.09-.37,14.55,0,14,0,14.36.39,14.57a19.83,19.83,0,0,0,3.52.2c2.75,0,3.16,0,3.44-.37s.34-1.63.34-14.46c0-12.53,0-14.11-.32-14.39s-.87-.33-3.48-.33A15.76,15.76,0,0,0,621.75,172.87Z"/><path class="cls-1" d="M517.9,175.41a2.74,2.74,0,0,1,2.81-2.79,2.79,2.79,0,0,1,2.82,2.79,2.86,2.86,0,0,1-2.83,2.83A2.82,2.82,0,0,1,517.9,175.41Z"/><path class="cls-1" d="M461.22,175.39a2.82,2.82,0,1,1-5.63,0,2.82,2.82,0,0,1,5.63,0Z"/><path class="cls-1" d="M520.83,169a2.81,2.81,0,1,1,2.78-2.84A2.78,2.78,0,0,1,520.83,169Z"/><path class="cls-1" d="M461.15,166.22a2.83,2.83,0,1,1-2.81-2.83A2.82,2.82,0,0,1,461.15,166.22Z"/><path class="cls-1" d="M458.51,196.39a2.77,2.77,0,0,1-2.84-2.77,2.82,2.82,0,0,1,2.77-2.86,2.84,2.84,0,0,1,2.86,2.79A2.8,2.8,0,0,1,458.51,196.39Z"/><path class="cls-1" d="M515.87,198.14a2.79,2.79,0,1,1-2.75-2.86A2.79,2.79,0,0,1,515.87,198.14Z"/><path class="cls-1" d="M463.25,198.13a2.78,2.78,0,1,1,5.56,0,2.78,2.78,0,0,1-5.56,0Z"/><path class="cls-1" d="M520.68,196.39a2.79,2.79,0,0,1-2.86-2.76,2.82,2.82,0,1,1,5.63-.09A2.78,2.78,0,0,1,520.68,196.39Z"/><path class="cls-1" d="M461.21,184.27a2.79,2.79,0,0,1-2.75,2.87,2.82,2.82,0,1,1-.1-5.63A2.78,2.78,0,0,1,461.21,184.27Z"/><path class="cls-1" d="M517.9,184.26a2.78,2.78,0,0,1,2.87-2.75,2.82,2.82,0,1,1-2.87,2.75Z"/><path class="cls-1" d="M502.59,193.47a2.8,2.8,0,0,1,2.9-2.73,2.8,2.8,0,0,1-.16,5.6A2.77,2.77,0,0,1,502.59,193.47Z"/><path class="cls-1" d="M476.53,193.6a2.78,2.78,0,0,1-2.88,2.74,2.82,2.82,0,0,1-2.72-2.78,2.85,2.85,0,0,1,2.83-2.82A2.81,2.81,0,0,1,476.53,193.6Z"/><path class="cls-1" d="M515.87,179.84a2.79,2.79,0,0,1-5.57,0,2.82,2.82,0,0,1,2.79-2.85A2.79,2.79,0,0,1,515.87,179.84Z"/><path class="cls-1" d="M463.24,179.79a2.79,2.79,0,1,1,5.57.11,2.79,2.79,0,0,1-5.57-.11Z"/><path class="cls-1" d="M489.53,214.64a2.77,2.77,0,0,1-2.8-2.81,2.8,2.8,0,0,1,5.6,0A2.79,2.79,0,0,1,489.53,214.64Z"/><path class="cls-1" d="M489.49,196.38a2.8,2.8,0,0,1,0-5.59,2.8,2.8,0,1,1,0,5.59Z"/><path class="cls-1" d="M513.17,191.59a2.78,2.78,0,0,1-.09-5.55,2.78,2.78,0,1,1,.09,5.55Z"/><path class="cls-1" d="M466,191.59a2.78,2.78,0,1,1,0-5.55,2.78,2.78,0,0,1,0,5.55Z"/><path class="cls-1" d="M502.53,184.48a2.78,2.78,0,1,1,5.55.19,2.78,2.78,0,0,1-5.55-.19Z"/><path class="cls-1" d="M476.59,184.55a2.78,2.78,0,1,1-5.55-.08,2.78,2.78,0,0,1,5.55.08Z"/><path class="cls-1" d="M500.23,189.11a2.79,2.79,0,1,1-2.85-2.77A2.77,2.77,0,0,1,500.23,189.11Z"/><path class="cls-1" d="M481.72,186.34a2.8,2.8,0,1,1-.17,5.6,2.8,2.8,0,0,1,.17-5.6Z"/><path class="cls-1" d="M489.47,199.81a2.8,2.8,0,1,1-2.79,2.8A2.74,2.74,0,0,1,489.47,199.81Z"/><path class="cls-1" d="M494.74,198.16a2.78,2.78,0,1,1,2.83,2.77A2.75,2.75,0,0,1,494.74,198.16Z"/><path class="cls-1" d="M484.37,198.07a2.78,2.78,0,1,1-5.56.07,2.82,2.82,0,0,1,2.69-2.81A2.79,2.79,0,0,1,484.37,198.07Z"/><path class="cls-1" d="M500.23,207.39a2.75,2.75,0,0,1-2.8,2.8,2.8,2.8,0,0,1-2.78-2.84,2.77,2.77,0,0,1,2.76-2.72A2.72,2.72,0,0,1,500.23,207.39Z"/><path class="cls-1" d="M478.89,207.39a2.72,2.72,0,0,1,2.82-2.76,2.78,2.78,0,0,1,0,5.56A2.75,2.75,0,0,1,478.89,207.39Z"/><path class="cls-1" d="M505.26,200a2.77,2.77,0,1,1-2.73,2.85A2.71,2.71,0,0,1,505.26,200Z"/><path class="cls-1" d="M473.82,205.58a2.77,2.77,0,1,1,2.77-2.82A2.71,2.71,0,0,1,473.82,205.58Z"/><path class="cls-1" d="M504.94,214.2a2.26,2.26,0,0,1,.25-4.51,2.26,2.26,0,1,1-.25,4.51Z"/><path class="cls-1" d="M476.31,211.9a2.27,2.27,0,0,1-4.53.1,2.26,2.26,0,0,1,2.29-2.31A2.22,2.22,0,0,1,476.31,211.9Z"/><path class="cls-1" d="M481.73,177.87A2.3,2.3,0,0,1,484,180.2a2.26,2.26,0,0,1-2.36,2.2,2.22,2.22,0,0,1-2.18-2.23A2.28,2.28,0,0,1,481.73,177.87Z"/><path class="cls-1" d="M499.67,180.1a2.27,2.27,0,1,1-4.54,0,2.3,2.3,0,0,1,2.2-2.26A2.28,2.28,0,0,1,499.67,180.1Z"/><path class="cls-1" d="M489.55,187.08a2.3,2.3,0,0,1-2.26-2.33,2.28,2.28,0,1,1,2.26,2.33Z"/><path class="cls-1" d="M484.05,216.51a2.3,2.3,0,0,1-2.26,2.33,2.34,2.34,0,0,1-2.3-2.3,2.26,2.26,0,0,1,2.21-2.23A2.23,2.23,0,0,1,484.05,216.51Z"/><path class="cls-1" d="M499.62,216.5a2.28,2.28,0,0,1-4.55.18,2.28,2.28,0,1,1,4.55-.18Z"/><path class="cls-1" d="M512.82,209.61a2.26,2.26,0,1,1,0-4.52,2.26,2.26,0,0,1,0,4.52Z"/><path class="cls-1" d="M491.89,221.27a2.25,2.25,0,0,1-2.34,2.22,2.33,2.33,0,0,1-2.2-2.26,2.29,2.29,0,0,1,2.31-2.28A2.23,2.23,0,0,1,491.89,221.27Z"/><path class="cls-1" d="M484.11,171.42a2.27,2.27,0,0,1-2.2,2.26,2.3,2.3,0,0,1-2.3-2.31,2.24,2.24,0,0,1,2.35-2.24A2.2,2.2,0,0,1,484.11,171.42Z"/><path class="cls-1" d="M499.72,171.39a2.29,2.29,0,0,1-2.29,2.29,2.33,2.33,0,0,1-2.25-2.35,2.27,2.27,0,0,1,2.24-2.2A2.24,2.24,0,0,1,499.72,171.39Z"/><path class="cls-1" d="M458.46,204.73a2.27,2.27,0,1,1,2.23-2.22A2.22,2.22,0,0,1,458.46,204.73Z"/><path class="cls-1" d="M468.63,207.29a2.28,2.28,0,0,1-2.26,2.32,2.26,2.26,0,0,1-.12-4.51A2.28,2.28,0,0,1,468.63,207.29Z"/><path class="cls-1" d="M466.18,168.7a2.27,2.27,0,0,1,2.31,2.27,2.2,2.2,0,0,1-2.15,2.26,2.26,2.26,0,0,1-2.39-2.17A2.32,2.32,0,0,1,466.18,168.7Z"/><path class="cls-1" d="M512.89,173.23a2.21,2.21,0,0,1-2.26-2.28,2.28,2.28,0,0,1,2.19-2.25,2.32,2.32,0,0,1,2.35,2.24A2.26,2.26,0,0,1,512.89,173.23Z"/><path class="cls-1" d="M520.71,204.73a2.27,2.27,0,0,1-.06-4.54,2.27,2.27,0,1,1,.06,4.54Z"/><path class="cls-1" d="M474.24,165a2.25,2.25,0,1,1-2.31,2.29A2.23,2.23,0,0,1,474.24,165Z"/><path class="cls-1" d="M505.08,169.54a2.23,2.23,0,0,1-2.23-2.23,2.2,2.2,0,0,1,2.31-2.26,2.25,2.25,0,1,1-.08,4.49Z"/><path class="cls-1" d="M515,162.39a2.24,2.24,0,0,1-2.33,2.23,2.27,2.27,0,0,1-2.22-2.21,2.33,2.33,0,0,1,2.27-2.33A2.29,2.29,0,0,1,515,162.39Z"/><path class="cls-1" d="M468.72,162.3a2.22,2.22,0,0,1-2.24,2.32,2.27,2.27,0,0,1-2.3-2.26,2.3,2.3,0,0,1,2.19-2.27A2.27,2.27,0,0,1,468.72,162.3Z"/><path class="cls-1" d="M491.87,175.53a2.24,2.24,0,0,1-2.33,2.23,2.27,2.27,0,0,1,.08-4.54A2.25,2.25,0,0,1,491.87,175.53Z"/><path class="cls-1" d="M507.42,175.57a2.28,2.28,0,0,1-2.35,2.23,2.24,2.24,0,0,1-2.2-2.22,2.29,2.29,0,0,1,2.26-2.33A2.34,2.34,0,0,1,507.42,175.57Z"/><path class="cls-1" d="M476.25,175.57a2.25,2.25,0,0,1-2.33,2.23,2.27,2.27,0,0,1-2.22-2.22,2.34,2.34,0,0,1,2.28-2.33A2.31,2.31,0,0,1,476.25,175.57Z"/><path class="cls-1" d="M497.3,164.52a2,2,0,1,1,2-2A2,2,0,0,1,497.3,164.52Z"/><path class="cls-1" d="M474,160.39a1.94,1.94,0,1,1,2.11-1.79A1.95,1.95,0,0,1,474,160.39Z"/><path class="cls-1" d="M481.82,160.62a2,2,0,1,1-1.91,2A1.91,1.91,0,0,1,481.82,160.62Z"/><path class="cls-1" d="M489.68,168.61a1.92,1.92,0,0,1-1.94-2,1.93,1.93,0,0,1,3.86,0A1.92,1.92,0,0,1,489.68,168.61Z"/><path class="cls-1" d="M506.94,158.49a1.93,1.93,0,0,1-3.85,0,1.93,1.93,0,1,1,3.85,0Z"/><path class="cls-1" d="M489.64,156.81a1.46,1.46,0,0,1,1.35,1.41,1.42,1.42,0,0,1-1.53,1.36,1.38,1.38,0,0,1-1.27-1.47A1.42,1.42,0,0,1,489.64,156.81Z"/><path class="cls-1" d="M488.27,148.68a1.31,1.31,0,0,1,1.34-1.37,1.36,1.36,0,0,1,1.42,1.3,1.41,1.41,0,0,1-1.42,1.45A1.35,1.35,0,0,1,488.27,148.68Z"/><path class="cls-1" d="M481.8,154.6a1.41,1.41,0,0,1-1.38-1.36,1.35,1.35,0,0,1,1.32-1.42,1.38,1.38,0,0,1,1.45,1.41A1.43,1.43,0,0,1,481.8,154.6Z"/><path class="cls-1" d="M498.8,153.17a1.47,1.47,0,0,1-1.34,1.43,1.45,1.45,0,0,1-1.48-1.43,1.41,1.41,0,0,1,2.82,0Z"/><path class="cls-1" d="M843.64,165.54a10.11,10.11,0,1,1-10.08-9.84A9.89,9.89,0,0,1,843.64,165.54Zm-17.7,0a7.63,7.63,0,0,0,7.68,7.87,7.87,7.87,0,0,0-.06-15.73A7.65,7.65,0,0,0,825.94,165.54ZM832,170.7h-2.28v-9.84a19.93,19.93,0,0,1,3.78-.3,6.13,6.13,0,0,1,3.42.72,2.73,2.73,0,0,1,1,2.16,2.52,2.52,0,0,1-2,2.28v.12a2.9,2.9,0,0,1,1.8,2.4,7.42,7.42,0,0,0,.72,2.46H835.9a8.31,8.31,0,0,1-.78-2.4c-.18-1.08-.78-1.56-2-1.56H832Zm.06-5.58h1.08c1.26,0,2.28-.42,2.28-1.44s-.66-1.5-2.1-1.5a5.46,5.46,0,0,0-1.26.12Z"/><path class="cls-1" d="M82.7,36.34a18.17,18.17,0,1,1,18.17-18.17A18.19,18.19,0,0,1,82.7,36.34Zm0-30.07a11.9,11.9,0,1,0,11.9,11.9A11.92,11.92,0,0,0,82.7,6.27Z"/><polygon class="cls-1" points="83.59 110.05 0.1 47.86 0 47.96 0 56.62 83.59 118.9 165.4 58.39 165.4 49.53 83.59 110.05"/><polygon class="cls-1" points="83.59 93.76 0.1 31.57 0 31.67 0 40.33 83.59 102.61 165.4 42.1 165.4 33.24 83.59 93.76"/><polygon class="cls-1" points="83.59 77.47 0.1 15.28 0 15.38 0 24.04 83.59 86.33 165.4 25.82 165.4 16.96 83.59 77.47"/><path class="cls-1" d="M205.12,16.61h20.16l28,68.64L280.6,16.61H300l-37.68,85.68H243.28Z"/><path class="cls-1" d="M308.32,15.17h16.56V28.61H308.32Zm0,23.52h16.56v63.6H308.32Z"/><path class="cls-1" d="M435.16,102.29H424.6l-2.52-11.16c-7,8.4-19.2,13.56-32.64,13.56-36.24,0-50.4-21.12-50.4-45.24S354,14.21,389,14.21c26,0,42.72,13.2,44.64,30H414.16c-3.24-11.64-14-16.56-25.68-16.56-22.2,0-30.72,13.56-30.72,32.4,0,22.8,14.64,31.2,29.76,31.2,18.36,0,26.76-8.4,29.64-22.56H392.92V55.25h42.24Z"/><path class="cls-1" d="M484,16.61h21.36l38.16,85.68h-20l-9-21.24H474.16l-8.88,21.24H445.84Zm25.08,51L494.44,31.49,479.56,67.61Z"/><path class="cls-1" d="M554.2,16.61h18V88.13h52.08v14.16H554.2Z"/><path class="cls-1" d="M637.24,16.61h18V88.13h52.08v14.16H637.24Z"/><path class="cls-1" d="M720.28,16.61h74.39V30.05H738.28v21.6H792.4V65.09H738.28V88.85h57.35v13.44H720.28Z"/><path class="cls-1" d="M812.2,16.61h54.24c21.84,0,28.91,10,28.91,23.28,0,11.16-6.11,18.12-14.15,20.64v.24c10.19,2.16,12.47,11,12.47,23.16,0,4.08.12,13.68,3.6,18.36H877.84c-1.32-2.4-2.16-6.72-2.16-13,0-12.24-1.68-20.88-14.88-20.88H830.2v33.84h-18ZM861.28,55c10,0,15.36-3,15.36-12.6,0-8.88-5.88-12.36-15.36-12.36H830.2V55Z"/><path class="cls-1" d="M940.84,69.65l-37.44-53h22l24.48,38.16,24.47-38.16h22l-37.44,53v32.64h-18Z"/></g></g></svg>